<svg xmlns="http://www.w3.org/2000/svg" width="440" height="172" viewBox="0 0 440 172" font-family="'Segoe UI',Ubuntu,Helvetica,Arial,sans-serif">
  <rect x="0.5" y="0.5" width="439" height="171" rx="6"
        fill="#0D1117" stroke="#30363D"/>
  <text x="25" y="35" font-size="16" font-weight="600" fill="#58A6FF">Most used languages</text>
  <rect x="25" y="55" width="390.0" height="10" rx="5" fill="#21262D"/>
  <rect x="25.00" y="55" width="120.65" height="10" fill="#3572A5"/>
  <rect x="145.65" y="55" width="82.28" height="10" fill="#F05138"/>
  <rect x="227.93" y="55" width="74.98" height="10" fill="#DA5B0B"/>
  <rect x="302.91" y="55" width="68.42" height="10" fill="#F1E05A"/>
  <rect x="371.33" y="55" width="31.51" height="10" fill="#DEA584"/>
  <rect x="402.83" y="55" width="12.17" height="10" fill="#3178C6"/>
  <circle cx="30" cy="91" r="5" fill="#3572A5"/>
  <text x="43" y="95" font-size="12" fill="#C9D1D9">Python <tspan fill="#8B949E">30.9%</tspan></text>
  <circle cx="30" cy="115" r="5" fill="#F05138"/>
  <text x="43" y="119" font-size="12" fill="#C9D1D9">Swift <tspan fill="#8B949E">21.1%</tspan></text>
  <circle cx="30" cy="139" r="5" fill="#DA5B0B"/>
  <text x="43" y="143" font-size="12" fill="#C9D1D9">Jupyter Notebook <tspan fill="#8B949E">19.2%</tspan></text>
  <circle cx="230" cy="91" r="5" fill="#F1E05A"/>
  <text x="243" y="95" font-size="12" fill="#C9D1D9">JavaScript <tspan fill="#8B949E">17.5%</tspan></text>
  <circle cx="230" cy="115" r="5" fill="#DEA584"/>
  <text x="243" y="119" font-size="12" fill="#C9D1D9">Rust <tspan fill="#8B949E">8.1%</tspan></text>
  <circle cx="230" cy="139" r="5" fill="#3178C6"/>
  <text x="243" y="143" font-size="12" fill="#C9D1D9">TypeScript <tspan fill="#8B949E">3.1%</tspan></text>
</svg>
